<svg id="Logo_SiTec" data-name="Logo SiTec" xmlns="http://www.w3.org/2000/svg" viewBox="0 0 600 600"><defs><style>.cls-1{fill:#42c5dd;}.cls-2{fill:#af499d;}.cls-3{fill:#03d2c3;}</style></defs><title>Logo-vectorizado-rgb</title><path class="cls-1" d="M0,282a4.61,4.61,0,0,0,.92-2.88c1.31-11.92,2.65-23.82,4.92-35.6a295.69,295.69,0,0,1,14.65-51.09A316.16,316.16,0,0,1,34.9,160.82a19.61,19.61,0,0,1,3.25-4.73,10.26,10.26,0,0,1,11.17-2.91,10.24,10.24,0,0,1,7.57,9A13.5,13.5,0,0,1,55,170.23a278.73,278.73,0,0,0-25.49,68.6,289.76,289.76,0,0,0-5.15,29.72,277.42,277.42,0,0,0-2.18,38.53,271.85,271.85,0,0,0,2.59,32.73c3.26,23.29,10.33,45.45,19.31,67.09A300,300,0,0,0,75.5,464.51a252.22,252.22,0,0,0,82,75,288.39,288.39,0,0,0,67.92,27.77,313.64,313.64,0,0,0,35.33,7.56c8.29,1.28,16.62,2.13,25,2.66,9.12.57,18.23.6,27.34.26a238.34,238.34,0,0,0,29.76-3.13,250.36,250.36,0,0,0,42.61-11,280.84,280.84,0,0,0,67.84-35.34A294.28,294.28,0,0,0,499.33,489a263.21,263.21,0,0,0,36.42-49.3,289.76,289.76,0,0,0,18-37.64,15.2,15.2,0,0,1,3.45-5.42,11.11,11.11,0,0,1,12-2.13c4.12,1.85,6.16,5.11,6.28,9.65a16,16,0,0,1-1.19,6.31,281.87,281.87,0,0,1-23.4,47.22,313.76,313.76,0,0,1-34,44.63,298,298,0,0,1-60.45,51.52,284.65,284.65,0,0,1-87.43,37.05,322.17,322.17,0,0,1-38.4,6.81c-8.25,1-16.52,1.77-24.83,2-.7,0-1.45-.14-2.07.38H284.08c-3.62-.65-7.3-.28-10.94-.42-14.12-.51-28-2.85-41.72-5.87A268.55,268.55,0,0,1,180.94,577a301.74,301.74,0,0,1-49.7-27.93,334.37,334.37,0,0,1-31.38-24.48A321.21,321.21,0,0,1,75,500a272.84,272.84,0,0,1-26.94-34.92,289.51,289.51,0,0,1-29.34-58.69A325.6,325.6,0,0,1,3.53,349.63a190.23,190.23,0,0,1-2.8-24.77c-.09-2.1.18-4.32-.74-6.36Q0,300.31,0,282Z" transform="translate(0.01 0.01)"/><path class="cls-2" d="M309.6,43.14c28.92-.13,58.5,5.55,87.28,15.78A35,35,0,0,1,404.13,62a11,11,0,0,1,4.7,12.74c-1.28,4.44-5.38,7.34-10.34,7.44A16.56,16.56,0,0,1,392.42,81a258.08,258.08,0,0,0-29.54-9,234.39,234.39,0,0,0-27.35-4.73,246.93,246.93,0,0,0-33.73-1.71,223.41,223.41,0,0,0-85.38,18.6,254.42,254.42,0,0,0-71.68,47,224.83,224.83,0,0,0-51,70.54,263.31,263.31,0,0,0-18.92,58A199.11,199.11,0,0,0,70.89,291a271.72,271.72,0,0,0,1,37.63A233.59,233.59,0,0,0,96,412a248,248,0,0,0,12.31,21.7,14.38,14.38,0,0,1,2.59,8.59c-.24,4.41-2.3,7.63-6.39,9.32s-8,1.36-11.43-1.63a19,19,0,0,1-3.5-4.24,264.37,264.37,0,0,1-40-115.19,251.44,251.44,0,0,1-.94-38.12,263.59,263.59,0,0,1,18.5-85.38A261.36,261.36,0,0,1,285.65,44.15C293.06,43.45,300.48,43.21,309.6,43.14Z" transform="translate(0.01 0.01)"/><path class="cls-2" d="M555.4,294.59A268.71,268.71,0,0,1,542,379.49a250.25,250.25,0,0,1-40.83,75.9,266.27,266.27,0,0,1-67.07,61.48,264.47,264.47,0,0,1-112.75,38.82,238.73,238.73,0,0,1-34.25.8c-5.59-.26-11.17-.54-16.75-1a247.63,247.63,0,0,1-29.56-4.54,261.44,261.44,0,0,1-36.07-10.57,19.39,19.39,0,0,1-7.37-4.36c-3.34-3.42-3.52-7.38-1.84-11.55a9.79,9.79,0,0,1,9.11-6.65,16.08,16.08,0,0,1,6.78,1.24,232.15,232.15,0,0,0,31.36,9.62A222.08,222.08,0,0,0,268,532.88a255.07,255.07,0,0,0,30.38,1.68c31.13-.27,61.11-6.22,89.69-18.71a250.74,250.74,0,0,0,72.68-48A222.9,222.9,0,0,0,504.61,410a254.07,254.07,0,0,0,24.28-69.22,241.47,241.47,0,0,0,4.42-35.66,225.75,225.75,0,0,0-1-35A232.68,232.68,0,0,0,513,199.38a282.21,282.21,0,0,0-18-33.87c-1.84-3-2.81-6.13-1.93-9.6a10.54,10.54,0,0,1,8.74-8.22c4.51-.86,8.21.79,10.91,4.46a117.63,117.63,0,0,1,6.53,10.34,264.18,264.18,0,0,1,30,75.5,252,252,0,0,1,4.69,28.11A255.63,255.63,0,0,1,555.4,294.59Z" transform="translate(0.01 0.01)"/><path class="cls-1" d="M599.9,291.38c0,3.2.2,6.39,0,9.6a10.85,10.85,0,0,1-8.74,10.08,10.43,10.43,0,0,1-11.47-5.88,13.24,13.24,0,0,1-1.46-5.28c-.13-2.64-.29-5.28-.35-7.92-.17-8.48-1-16.91-1.9-25.34a277.84,277.84,0,0,0-7.1-38.38,262.49,262.49,0,0,0-40.63-87.37,292.27,292.27,0,0,0-69.17-69.33c-28.25-20.05-59.38-33.71-93-41.73a292.75,292.75,0,0,0-34.4-6.09c-4.68-.54-9.39-.82-14.1-1-5.27-.25-10.55-.26-15.82-.47a11.32,11.32,0,0,1-10.59-8.28,11.29,11.29,0,0,1,4.8-12.1A9.82,9.82,0,0,1,302.27,0a23.2,23.2,0,0,0,3.12,0c8.08-.18,16.11.65,24.14,1.36,6.61.58,13.17,1.45,19.71,2.46a292.31,292.31,0,0,1,40.81,9.34,286.76,286.76,0,0,1,97.88,52.43,307.8,307.8,0,0,1,63.75,70,291.83,291.83,0,0,1,39.54,91.08,312.68,312.68,0,0,1,6.58,34.58A198.21,198.21,0,0,1,599.9,291.38Z" transform="translate(0.01 0.01)"/><path class="cls-3" d="M159.73,315.77q0,8.28,3.82,12.35c2.56,2.72,6.54,4.08,12,4.08a23.33,23.33,0,0,0,10.8-2.33,15.81,15.81,0,0,0,6.83-6.61,21,21,0,0,0,2.33-10.16,17.5,17.5,0,0,0-1.47-7.35,20.71,20.71,0,0,0-4.45-6.09A62.41,62.41,0,0,0,181,293a57.88,57.88,0,0,1-8.4-6.74,26.78,26.78,0,0,1-5.33-7.43,20.82,20.82,0,0,1-2-9.16,26.07,26.07,0,0,1,3.9-14.24,25.63,25.63,0,0,1,11-9.51,38.14,38.14,0,0,1,16.41-3.35,74.14,74.14,0,0,1,11.65.85,82.94,82.94,0,0,1,11.86,2.91l-3.83,17.58H209.7a25.28,25.28,0,0,0-1.78-9.13,9.49,9.49,0,0,0-4.3-4.75,16.42,16.42,0,0,0-7.46-1.44,20.71,20.71,0,0,0-10,2.32,16.13,16.13,0,0,0-6.55,6.33,17.83,17.83,0,0,0-2.26,8.93,15.69,15.69,0,0,0,1.24,6.36,18.19,18.19,0,0,0,3.93,5.51,57,57,0,0,0,7.89,6.26,69.23,69.23,0,0,1,10.22,8.32,24.45,24.45,0,0,1,5.19,7.76,25,25,0,0,1,1.68,9.52,27.49,27.49,0,0,1-4,14.74,26.54,26.54,0,0,1-11.28,10,37.6,37.6,0,0,1-16.58,3.53,101.52,101.52,0,0,1-13.5-1,99.31,99.31,0,0,1-13.09-2.61l4.1-18.82h6.56Z" transform="translate(0.01 0.01)"/><path class="cls-3" d="M236.3,319.94q-.75,3.49-1,5.1a21.69,21.69,0,0,0-.21,2.7,6.34,6.34,0,0,0,.69,3.22,4.39,4.39,0,0,0,2.12,1.78,17.73,17.73,0,0,0,4.72,1l-.62,3.35H220.85l10.32-46.12c.59-2.65,1-4.75,1.23-6.33a28,28,0,0,0,.34-3.93,6.65,6.65,0,0,0-.58-3.08,3.59,3.59,0,0,0-1.94-1.64,15.72,15.72,0,0,0-4.72-.69l.75-3.63,16.68-.61h4Zm16.88-75.13L250,258.08h-12.1l3.14-13.27Z" transform="translate(0.01 0.01)"/><path class="cls-3" d="M301.52,337.05H272.74l.75-3.35a11.65,11.65,0,0,0,4-1.06,7,7,0,0,0,2.29-2.16,19.15,19.15,0,0,0,2-4.48,92,92,0,0,0,2.39-9.34l14.64-67h-8.68a15.63,15.63,0,0,0-6.77,1.23,14.83,14.83,0,0,0-5.06,4.59,65,65,0,0,0-6.15,11.22h-6.56l5.12-23.06h71.38l-5.34,24.08h-6.56q0-6.63-.34-10a13.63,13.63,0,0,0-1.3-5.07,5.29,5.29,0,0,0-2.36-2.39,13.09,13.09,0,0,0-4.95-.65H311.11l-14.83,67.47c-.42,1.78-.7,3.2-.86,4.24s-.3,2.16-.41,3.32-.17,2.2-.17,3.12a6.71,6.71,0,0,0,.68,3.32,4,4,0,0,0,2.06,1.74,17.79,17.79,0,0,0,4.72.82Z" transform="translate(0.01 0.01)"/><path class="cls-3" d="M379.31,323.43a59.08,59.08,0,0,1-9.7,8.76,32.66,32.66,0,0,1-9.3,4.59,36.31,36.31,0,0,1-10.25,1.37,22.53,22.53,0,0,1-9.3-1.75,17.68,17.68,0,0,1-6.46-4.79,19.7,19.7,0,0,1-3.8-7.25,32.52,32.52,0,0,1-1.23-9.14,52.7,52.7,0,0,1,2.63-15.7,46,46,0,0,1,8-15.06,37.05,37.05,0,0,1,12.79-10.33,35.45,35.45,0,0,1,15.85-3.66q8.28,0,12.41,3.35c2.76,2.23,4.13,5.73,4.13,10.47q0,11.63-10.9,17.45t-32.37,5.81a45.17,45.17,0,0,0-.82,8.89q0,7.19,2.8,10.44t9.16,3.25a23.78,23.78,0,0,0,11.41-2.74A46.11,46.11,0,0,0,375.07,319Zm-36.37-21.69a87.07,87.07,0,0,0,11-.72,45.39,45.39,0,0,0,8.17-1.78,21.7,21.7,0,0,0,5.67-2.7,14.3,14.3,0,0,0,3.59-3.45,11.73,11.73,0,0,0,1.84-4,18.22,18.22,0,0,0,.52-4.34,10,10,0,0,0-1.95-6.54,7.08,7.08,0,0,0-5.78-2.36,15.59,15.59,0,0,0-9.4,3.45,32.3,32.3,0,0,0-8.13,9.31A53.79,53.79,0,0,0,342.94,301.74Z" transform="translate(0.01 0.01)"/><path class="cls-3" d="M437.9,288.06a30.79,30.79,0,0,0-.85-7.53,6.47,6.47,0,0,0-2.33-3.49,7.71,7.71,0,0,0-4.55-1.16,17.11,17.11,0,0,0-12.4,5.51q-5.5,5.5-9,15.6a59.42,59.42,0,0,0-3.48,19.4,27.46,27.46,0,0,0,.51,5.41,11.78,11.78,0,0,0,1.78,4.38,8.74,8.74,0,0,0,3.35,2.9,11.57,11.57,0,0,0,5.3,1.06A23,23,0,0,0,427,327.78a39.87,39.87,0,0,0,9.61-7.42l4.17,4.17a45.24,45.24,0,0,1-12.95,10.4,30.8,30.8,0,0,1-14.05,3.29q-9.9,0-15-5.89t-5.12-17.11a54.41,54.41,0,0,1,2.73-16.08,46.93,46.93,0,0,1,8-15.39,33.8,33.8,0,0,1,12.31-9.92,35.1,35.1,0,0,1,15-3.29,66.29,66.29,0,0,1,9.54.61,72.76,72.76,0,0,1,7.21,1.44l-3.35,15.47Z" transform="translate(0.01 0.01)"/></svg>